<svg width="36" height="36" viewBox="0 0 36 36" fill="none" xmlns="http://www.w3.org/2000/svg">
<path fill-rule="evenodd" clip-rule="evenodd" d="M32.97 3.01808C33.8764 3.92272 34.5836 5.00635 35.0464 6.1996C35.5801 7.61527 35.8648 9.11232 35.8881 10.6248C36 12.5349 36 13.1537 36 18.0299C36 22.9062 35.974 23.515 35.8881 25.4351C35.8581 26.9281 35.5762 28.4012 35.0504 29.7984C34.587 30.9915 33.8796 32.0751 32.9733 32.98C32.067 33.8849 30.9817 34.5912 29.7868 35.0539C28.3878 35.5771 26.9102 35.8599 25.4167 35.8902C23.5076 36 22.8818 36 18 36C13.1182 36 12.5084 35.9741 10.5833 35.8902C9.0867 35.8411 7.60949 35.5373 6.21524 34.992C5.0199 34.5301 3.9342 33.8243 3.02753 32.9197C2.12085 32.0151 1.41313 30.9317 0.949578 29.7385C0.423811 28.3393 0.141937 26.8663 0.11195 25.3733C0 23.4631 0 22.8423 0 17.9681C0 13.0918 0.0259884 12.483 0.11195 10.5629C0.141166 9.07153 0.424421 7.59603 0.949578 6.1996C1.41183 5.00604 2.11887 3.92213 3.02532 3.01742C3.93178 2.11272 5.01764 1.40719 6.21324 0.946108C7.61013 0.420362 9.08674 0.13684 10.5793 0.107784C12.4884 0 13.1142 0 17.996 0C22.8778 0 23.4876 0.0239519 25.4127 0.107784C26.9064 0.138405 28.3841 0.42187 29.7828 0.946108C30.978 1.40773 32.0636 2.11344 32.97 3.01808ZM31.9898 28.5948C32.3883 27.5154 32.5986 26.3759 32.6115 25.2255V25.2275H32.6335C32.7195 23.3194 32.7195 22.7964 32.7195 17.9341C32.7195 13.0699 32.6975 12.5369 32.6115 10.6387C32.5929 9.50132 32.3827 8.37515 31.9898 7.30738C31.6894 6.53108 31.2297 5.82606 30.6403 5.23759C30.0509 4.64911 29.3448 4.19017 28.5673 3.89022C27.4985 3.49316 26.3691 3.28316 25.2288 3.26946C23.2956 3.15968 22.7959 3.15968 17.924 3.15968C13.0522 3.15968 12.5184 3.18363 10.6173 3.26946C9.47784 3.28536 8.34947 3.49529 7.28076 3.89022C5.70346 4.49301 4.45402 5.73253 3.84429 7.30738C3.44578 8.38607 3.23549 9.52499 3.22257 10.6747C3.11661 12.6088 3.11661 13.1058 3.11661 17.9701C3.11661 22.8323 3.13661 23.3673 3.22257 25.2635C3.24118 26.4009 3.45136 27.527 3.84429 28.5948C4.14583 29.3725 4.60751 30.0783 5.19947 30.6666C5.79143 31.2549 6.50048 31.7125 7.28076 32.01C8.34894 32.4068 9.47764 32.6168 10.6173 32.6307C12.5524 32.7405 13.0502 32.7405 17.924 32.7405C22.7939 32.7405 23.3296 32.7186 25.2288 32.6307C26.369 32.6161 27.4982 32.4061 28.5673 32.01C29.3449 31.7107 30.0511 31.2522 30.6405 30.664C31.23 30.0758 31.6896 29.371 31.9898 28.5948ZM27.5958 10.5389C28.786 10.5389 29.7508 9.57554 29.7508 8.38719C29.7508 7.19884 28.786 6.2355 27.5958 6.2355C26.4056 6.2355 25.4407 7.19884 25.4407 8.38719C25.4407 9.57554 26.4056 10.5389 27.5958 10.5389ZM17.9861 8.72669C15.5344 8.72669 13.1832 9.69908 11.4497 11.43C9.71609 13.1608 8.74218 15.5084 8.74218 17.9562C8.74218 20.4041 9.71609 22.7516 11.4497 24.4825C13.1832 26.2134 15.5344 27.1858 17.9861 27.1858C20.4377 27.1858 22.7889 26.2134 24.5225 24.4825C26.2561 22.7516 27.23 20.4041 27.23 17.9562C27.23 15.5084 26.2561 13.1608 24.5225 11.43C22.7889 9.69908 20.4377 8.72669 17.9861 8.72669ZM17.9861 23.9502C16.3934 23.9502 14.8659 23.3185 13.7397 22.194C12.6134 21.0696 11.9807 19.5445 11.9807 17.9542C11.9807 16.364 12.6134 14.8389 13.7397 13.7144C14.8659 12.5899 16.3934 11.9582 17.9861 11.9582C19.5788 11.9582 21.1063 12.5899 22.2325 13.7144C23.3587 14.8389 23.9914 16.364 23.9914 17.9542C23.9914 19.5445 23.3587 21.0696 22.2325 22.194C21.1063 23.3185 19.5788 23.9502 17.9861 23.9502Z" fill="url(#paint0_linear_2_4)"/>
<defs>
<linearGradient id="paint0_linear_2_4" x1="30.1234" y1="1.67092" x2="2.97792" y2="33.043" gradientUnits="userSpaceOnUse">
<stop offset="0.17301" stop-color="#4967D5"/>
<stop offset="0.688933" stop-color="#DB2E7D"/>
<stop offset="1" stop-color="#FFAF00"/>
</linearGradient>
</defs>
</svg>
